<?xml version="1.0" encoding="UTF-8" standalone="no"?>
<svg
   width="32"
   height="32"
   viewBox="0 0 32 32"
   fill="none"
   version="1.1"
   id="svg6"
   sodipodi:docname="1f6ab.svg"
   inkscape:version="1.1.1 (3bf5ae0d25, 2021-09-20)"
   xmlns:inkscape="http://www.inkscape.org/namespaces/inkscape"
   xmlns:sodipodi="http://sodipodi.sourceforge.net/DTD/sodipodi-0.dtd"
   xmlns="http://www.w3.org/2000/svg"
   xmlns:svg="http://www.w3.org/2000/svg">
  <defs
     id="defs10" />
  <sodipodi:namedview
     id="namedview8"
     pagecolor="#ffffff"
     bordercolor="#666666"
     borderopacity="1.0"
     inkscape:pageshadow="2"
     inkscape:pageopacity="0.0"
     inkscape:pagecheckerboard="0"
     showgrid="false"
     inkscape:zoom="10.783378"
     inkscape:cx="13.678459"
     inkscape:cy="9.6908405"
     inkscape:window-width="1366"
     inkscape:window-height="715"
     inkscape:window-x="-8"
     inkscape:window-y="-8"
     inkscape:window-maximized="1"
     inkscape:current-layer="svg6" />
  <path
     d="M15.95 2C8.26 2 2 8.26 2 15.95C2 23.64 8.26 29.9 15.95 29.9C23.64 29.9 29.9 23.65 29.9 15.95C29.9 8.25 23.65 2 15.95 2ZM26.89 15.95C26.89 18.3174 26.1275 20.5103 24.8402 22.2997C24.7518 22.4227 24.5746 22.4346 24.4674 22.3276L9.57271 7.44258C9.46551 7.33544 9.4774 7.15815 9.60043 7.06965C11.3898 5.78246 13.5826 5.02 15.95 5.02C21.98 5.01 26.89 9.92 26.89 15.95ZM5.01 15.95C5.01 13.573 5.78167 11.3797 7.06967 9.59033C7.15819 9.46735 7.33543 9.45543 7.44258 9.56258L22.3369 24.4569C22.4442 24.5642 22.432 24.7418 22.3086 24.8302C20.5104 26.1183 18.3175 26.89 15.95 26.89C9.92 26.89 5.01 21.98 5.01 15.95Z"
     fill="#F8312F"
     id="path4" />
</svg>
